<?xml version="1.0" standalone="no"?>
<!DOCTYPE svg PUBLIC "-//W3C//DTD SVG 20010904//EN"
 "http://www.w3.org/TR/2001/REC-SVG-20010904/DTD/svg10.dtd">
<svg version="1.0" xmlns="http://www.w3.org/2000/svg"
 width="800.000000pt" height="800.000000pt" viewBox="0 0 800.000000 800.000000"
 preserveAspectRatio="xMidYMid meet">

<g transform="translate(0.000000,800.000000) scale(0.100000,-0.100000)"
fill="#000000" stroke="none">
<path d="M0 4000 l0 -4000 4000 0 4000 0 0 4000 0 4000 -4000 0 -4000 0 0
-4000z m4420 3079 c0 -6 74 -17 135 -19 35 -2 130 -23 139 -32 6 -4 21 -8 35
-7 24 0 24 1 6 9 -16 7 -17 9 -3 9 9 1 20 -3 23 -9 3 -5 21 -10 38 -10 25 0
29 -3 17 -11 -11 -8 -8 -9 13 -4 16 3 26 2 23 -3 -3 -5 21 -13 54 -16 33 -4
60 -11 60 -16 0 -4 23 -11 51 -15 29 -4 53 -13 56 -21 3 -8 13 -14 23 -14 11
0 22 -4 25 -10 3 -5 15 -10 26 -10 10 0 19 -4 19 -10 0 -5 5 -10 11 -10 5 0 7
5 4 10 -3 6 0 10 8 10 8 0 17 -7 21 -15 3 -8 12 -15 21 -15 8 0 15 -5 15 -11
0 -6 9 -9 20 -6 12 3 20 0 20 -8 0 -9 8 -11 22 -7 14 3 19 2 14 -6 -4 -8 0
-12 12 -12 22 0 84 -29 94 -43 3 -6 17 -11 30 -13 12 -1 25 -3 28 -3 3 -1 -2
-6 -10 -12 -12 -8 -11 -9 5 -7 11 2 29 -5 40 -15 11 -10 32 -21 47 -24 15 -3
25 -10 22 -15 -3 -5 3 -12 15 -15 12 -3 21 -12 21 -20 0 -11 7 -13 32 -7 28 6
31 5 20 -8 -10 -13 -8 -15 13 -10 15 2 25 0 25 -7 0 -6 10 -11 23 -11 14 0 26
-9 32 -22 6 -13 20 -27 33 -33 12 -5 22 -16 22 -23 0 -7 8 -16 18 -19 9 -4 49
-38 88 -76 39 -37 81 -75 93 -84 12 -8 20 -21 17 -28 -3 -8 2 -11 13 -8 15 4
18 -1 17 -23 -1 -19 4 -28 17 -30 22 -3 47 -23 47 -36 0 -6 -8 -4 -17 3 -15
11 -15 10 1 -9 16 -18 22 -20 34 -10 13 11 14 10 8 -9 -5 -16 -2 -22 11 -25
10 -2 18 -12 18 -23 0 -13 6 -19 16 -17 10 1 21 -9 29 -28 7 -16 19 -30 26
-30 8 0 14 -6 14 -13 0 -7 9 -23 20 -35 11 -12 19 -27 18 -34 -2 -7 4 -12 12
-13 9 0 14 -8 12 -19 -3 -13 1 -17 11 -13 11 4 19 -4 26 -25 10 -28 9 -29 -6
-17 -20 17 -14 5 29 -55 15 -21 28 -45 28 -53 0 -8 4 -12 9 -9 13 9 34 -22 27
-40 -8 -22 4 -40 15 -23 6 10 9 4 9 -18 0 -18 5 -33 11 -33 5 0 7 -4 4 -10 -3
-5 1 -10 10 -10 11 0 15 -5 11 -15 -5 -15 46 -139 55 -131 3 3 5 -3 6 -12 2
-33 49 -142 58 -135 4 5 5 3 1 -4 -3 -6 3 -35 14 -65 32 -87 77 -287 96 -425
20 -152 23 -458 5 -638 -22 -215 -57 -363 -143 -600 -89 -247 -124 -316 -283
-560 -197 -302 -422 -527 -731 -733 -95 -64 -343 -196 -434 -233 -191 -75
-421 -141 -620 -176 -150 -26 -577 -26 -735 0 -309 52 -520 119 -779 248 -157
79 -193 100 -301 178 -588 422 -980 1044 -1102 1751 -26 153 -28 184 -28 430
0 275 -1 260 51 520 51 251 162 529 314 786 159 269 397 535 635 712 61 45
121 90 135 100 36 27 165 104 235 140 179 92 524 210 677 231 37 5 72 12 77
15 5 3 31 8 58 11 26 2 104 9 173 16 69 6 127 13 129 15 8 7 341 0 341 -7z
m1725 -211 c6 -9 35 -23 65 -30 69 -18 73 -39 10 -50 -76 -13 -87 -23 -95 -87
-11 -100 -28 -103 -45 -10 -12 62 -42 99 -81 99 -70 0 -78 25 -13 41 55 14 78
46 88 120 4 27 12 62 18 77 10 25 12 20 27 -58 9 -47 21 -93 26 -102z m-992
45 c-7 -2 -19 -2 -25 0 -7 3 -2 5 12 5 14 0 19 -2 13 -5z m1411 -313 c14 -112
11 -107 73 -115 70 -9 83 -13 83 -31 0 -18 -40 -34 -84 -34 -49 0 -63 -17 -75
-94 -16 -106 -27 -105 -43 5 -5 41 -15 77 -21 81 -6 3 -37 10 -69 13 -52 6
-58 9 -58 30 0 20 6 23 59 29 33 4 64 12 69 19 5 7 12 37 16 67 4 30 12 71 18
90 9 29 12 32 18 15 4 -11 11 -45 14 -75z m-4656 -172 c4 -29 -22 -45 -44 -27
-18 15 -18 24 2 44 22 21 38 14 42 -17z m4181 -149 c-16 -10 -23 -4 -14 10 3
6 11 8 17 5 6 -4 5 -9 -3 -15z m1115 -1375 c8 -21 -1 -34 -25 -34 -21 0 -25
20 -7 38 16 16 25 15 32 -4z m-5458 -2017 c68 -62 51 -168 -33 -203 -50 -21
-99 -10 -140 31 -37 37 -43 81 -19 139 19 46 51 66 108 66 41 0 54 -5 84 -33z
m4531 -398 c84 -32 107 -137 44 -200 -97 -97 -259 19 -196 141 32 61 88 84
152 59z m-4139 -45 c38 -40 41 -74 10 -121 -27 -38 -67 -58 -103 -49 -29 7
-73 52 -81 84 -13 48 22 107 73 122 40 12 63 3 101 -36z m76 -336 c15 -25 -3
-52 -37 -56 -21 -3 -28 2 -33 22 -12 49 43 76 70 34z"/>
<path d="M4085 6929 c-704 -28 -1275 -289 -1741 -799 -236 -257 -449 -658
-539 -1012 -74 -291 -93 -448 -77 -667 36 -511 172 -908 453 -1326 88 -131
233 -315 248 -315 7 0 52 33 105 77 34 28 167 90 266 124 84 28 108 32 200 32
58 0 134 -5 170 -12 252 -48 597 -292 766 -541 78 -115 114 -194 145 -319 16
-63 32 -118 37 -123 4 -4 28 -5 53 -2 l45 6 23 91 c61 252 230 490 480 677
109 82 256 161 371 200 110 38 416 30 466 -11 8 -6 21 -9 29 -5 9 3 13 2 10
-4 -3 -6 2 -13 12 -16 10 -3 30 -12 45 -20 14 -8 33 -14 41 -14 8 0 20 -7 28
-16 7 -8 20 -13 29 -11 9 2 22 -3 28 -13 6 -9 32 -30 59 -45 26 -15 58 -37 70
-47 l21 -20 39 42 c52 58 248 329 304 420 78 128 104 180 166 330 118 285 175
555 175 835 0 94 -1 190 -2 215 -1 25 -1 68 0 95 5 148 -79 483 -182 725 -54
128 -161 315 -263 460 -250 357 -647 671 -1041 823 -279 108 -437 149 -664
172 -214 21 -197 21 -375 14z m322 -549 c25 -7 40 -17 36 -23 -4 -6 2 -8 15
-5 12 4 22 2 22 -3 0 -5 16 -9 35 -9 35 0 87 -18 81 -29 -2 -3 12 -7 32 -8 19
-1 38 -6 41 -11 3 -4 14 -12 24 -15 11 -4 21 -16 24 -28 3 -12 11 -18 19 -15
8 3 13 0 11 -7 -1 -7 7 -12 18 -12 12 -1 19 -7 17 -15 -3 -11 0 -11 14 1 16
12 17 12 11 -3 -8 -23 24 -42 43 -25 12 10 12 9 2 -4 -9 -12 -3 -23 34 -57 25
-24 50 -40 56 -36 6 4 8 3 4 -4 -3 -6 6 -24 21 -41 16 -16 36 -40 45 -53 16
-20 17 -20 12 -3 -5 16 -4 17 4 5 6 -8 9 -17 6 -21 -2 -4 3 -12 11 -19 8 -7
15 -18 15 -24 0 -6 10 -22 23 -36 36 -39 133 -246 158 -335 44 -161 50 -203
56 -365 4 -139 2 -184 -15 -285 -49 -280 -125 -456 -297 -685 -126 -167 -274
-289 -464 -384 -346 -174 -789 -67 -1115 269 -95 98 -185 225 -239 338 -132
273 -185 542 -158 801 25 232 55 343 140 519 53 108 176 269 265 347 22 19 58
51 80 71 57 51 265 157 356 181 165 44 194 48 355 44 88 -2 179 -10 202 -16z
m1087 -142 c33 -14 49 -67 34 -109 -29 -84 -162 -55 -162 36 0 66 65 103 128
73z m-2588 -58 c8 0 19 -11 26 -25 9 -19 8 -29 -6 -50 -9 -14 -25 -25 -34 -25
-23 0 -62 36 -62 57 0 23 31 55 48 48 7 -3 20 -5 28 -5z m-211 -380 c0 -157
-1 -266 -3 -242 -4 51 -22 56 -22 5 0 -20 -3 -33 -7 -30 -3 4 -5 45 -4 93 2
127 -13 126 -20 -1 -3 -74 -6 -22 -7 162 -2 239 0 274 14 288 9 9 24 15 33 13
14 -3 16 -33 16 -288z m3086 270 c19 -11 19 -37 19 -1436 l0 -1424 -26 -12
c-18 -8 -30 -9 -42 -2 -15 10 -16 127 -15 1434 1 1356 2 1424 19 1437 21 16
20 16 45 3z m-3260 -102 c3 -161 -4 -364 -12 -372 -5 -6 -9 -24 -9 -40 0 -17
-4 -37 -9 -44 -5 -8 -6 8 -3 37 4 42 2 51 -12 51 -14 0 -16 -35 -15 -372 0
-205 3 -367 6 -360 7 17 23 15 23 -4 0 -10 6 -14 14 -11 11 4 15 -12 19 -76 7
-108 8 -1537 1 -1559 -9 -28 -72 -24 -83 5 -4 12 -5 173 -1 357 4 184 7 803 8
1375 0 572 0 1046 1 1053 1 7 15 12 36 12 l35 0 1 -52z m2979 -108 c12 -12 20
-33 20 -55 0 -29 -6 -39 -32 -55 -41 -25 -40 -25 -72 5 -49 45 -26 125 36 125
15 0 37 -9 48 -20z m473 -1315 l1 -1270 -27 -9 c-22 -8 -31 -6 -45 7 -16 17
-17 93 -14 1275 l3 1257 21 18 c18 15 24 16 40 5 20 -13 20 -35 21 -1283z
m-3622 1006 c33 -34 40 -91 14 -128 -21 -31 -82 -48 -118 -34 -35 13 -61 71
-53 116 15 78 100 103 157 46z m3821 -38 c24 -22 23 -68 -4 -112 l-23 -36 -3
-705 c-1 -388 -7 -709 -11 -713 -5 -5 -21 -7 -37 -5 l-29 3 -2 730 c-1 402 -5
747 -9 768 -6 31 -3 42 16 62 28 29 75 33 102 8z m-558 -29 c9 -8 16 -21 17
-27 0 -7 0 -379 -1 -827 -1 -731 -3 -817 -17 -832 -18 -20 -48 -24 -59 -7 -13
21 -6 1680 7 1695 15 18 34 18 53 -2z m-2735 -62 c11 -21 18 -1463 7 -1481 -9
-14 -49 -14 -63 0 -8 8 -10 217 -6 732 2 397 6 732 9 745 5 27 39 30 53 4z
m-182 -169 c-2 -32 -3 -6 -3 57 0 63 1 89 3 58 2 -32 2 -84 0 -115z m-60 45
c-2 -13 -4 -3 -4 22 0 25 2 35 4 23 2 -13 2 -33 0 -45z m-492 -98 c-5 -14 -2
-20 9 -20 10 0 16 -8 15 -22 -1 -20 -2 -21 -6 -4 -5 18 -6 18 -19 -5 l-13 -24
-1 28 c0 17 -5 27 -15 27 -18 0 -20 -31 -3 -48 9 -9 9 -12 0 -12 -9 0 -12 -36
-12 -131 0 -114 2 -130 14 -119 8 6 17 30 19 53 3 39 4 39 7 -13 3 -55 3 -55
9 -15 4 22 10 -171 13 -430 6 -465 6 -470 -14 -487 -23 -20 -28 -21 -47 -9
-11 7 -13 111 -12 622 2 640 1 628 44 629 14 0 17 -5 12 -20z m4159 7 c10 -7
17 -24 16 -38 -1 -13 -3 -276 -5 -584 -2 -308 -4 -564 -5 -568 -1 -18 -45 -25
-62 -9 -17 14 -18 55 -18 594 0 565 0 578 20 598 24 24 30 24 54 7z m-847 -29
c6 -8 10 -215 9 -552 l-1 -539 -22 -14 c-19 -13 -24 -12 -42 6 -21 21 -21 28
-21 547 0 343 4 532 10 545 12 21 52 26 67 7z m-2770 -50 c-3 -7 -5 -2 -5 12
0 14 2 19 5 13 2 -7 2 -19 0 -25z m-17 2 c0 -5 -5 -10 -11 -10 -5 0 -7 5 -4
10 3 6 8 10 11 10 2 0 4 -4 4 -10z m-533 -32 c-3 -8 -6 -5 -6 6 -1 11 2 17 5
13 3 -3 4 -12 1 -19z m20 0 c-3 -8 -6 -5 -6 6 -1 11 2 17 5 13 3 -3 4 -12 1
-19z m540 -45 c-3 -10 -5 -4 -5 12 0 17 2 24 5 18 2 -7 2 -21 0 -30z m-30 -5
c-3 -7 -5 -2 -5 12 0 14 2 19 5 13 2 -7 2 -19 0 -25z m-157 -43 l-7 -50 -2 60
c0 34 3 55 8 50 4 -6 5 -32 1 -60z m-353 -37 c-3 -7 -5 -2 -5 12 0 14 2 19 5
13 2 -7 2 -19 0 -25z m4311 20 c17 -17 17 -809 0 -826 -17 -17 -43 -15 -59 5
-12 13 -13 87 -10 407 2 215 7 399 12 409 11 20 40 22 57 5z m-4488 -44 c15
-39 13 -677 -2 -692 -18 -18 -46 -14 -58 7 -15 29 -14 683 2 699 20 20 48 14
58 -14z m309 -49 c1 19 3 18 21 -5 l19 -25 4 50 c2 28 4 -183 5 -467 1 -290 7
-561 13 -617 9 -80 8 -105 -3 -127 -17 -36 -39 -48 -70 -41 -48 12 -57 70 -29
187 7 27 14 256 18 580 4 294 10 515 14 490 3 -25 7 -36 8 -25z m402 0 c6 14
7 8 3 -17 -4 -24 -2 -38 4 -38 13 0 11 -1548 -1 -1567 -11 -18 -52 -16 -67 2
-10 13 -11 142 -5 648 4 348 9 707 10 799 1 93 5 171 8 175 4 3 8 -18 8 -48 2
-50 3 -48 13 31 10 75 11 80 15 40 2 -36 5 -41 12 -25z m2522 -1053 c16 -27
17 -37 7 -67 -23 -69 -90 -86 -141 -36 -19 19 -29 40 -29 59 0 33 32 80 64 92
31 11 78 -11 99 -48z m-1958 3 c33 -32 33 -83 0 -119 -29 -31 -58 -33 -102 -6
-28 17 -33 26 -33 57 0 43 5 52 40 76 34 24 67 21 95 -8z m2937 -5 c26 -27 30
-36 25 -67 -14 -84 -105 -122 -160 -67 -53 53 -41 120 26 149 49 22 76 18 109
-15z m-1519 -170 c-8 -25 -25 -63 -38 -86 -41 -70 -209 -220 -299 -266 -62
-32 -159 -48 -224 -38 -120 20 -298 133 -374 237 -73 99 -118 220 -92 246 4 3
38 -21 77 -54 120 -101 267 -158 408 -160 189 -2 395 78 509 196 l35 36 7 -33
c4 -19 0 -50 -9 -78z m112 -167 c108 -153 164 -220 210 -251 28 -19 50 -39 50
-45 0 -7 -67 -46 -150 -87 -163 -81 -242 -130 -320 -194 -73 -61 -181 -172
-243 -251 -97 -122 -132 -155 -167 -155 -37 0 -53 14 -142 121 -67 81 -234
239 -334 316 -80 61 -265 173 -334 201 -80 32 -92 42 -69 59 14 10 21 9 43 -6
14 -9 51 -30 82 -45 31 -15 69 -39 84 -52 26 -22 39 -28 58 -25 4 0 7 -4 7
-10 0 -5 5 -7 10 -4 6 3 10 1 10 -5 0 -6 5 -8 10 -5 6 3 10 -1 10 -9 0 -14 4
-17 25 -16 3 0 18 -11 33 -25 15 -14 30 -25 33 -25 4 0 38 -20 76 -45 37 -25
75 -45 83 -45 9 0 25 -7 36 -15 12 -8 24 -11 28 -8 3 3 6 1 6 -5 0 -12 130
-10 202 4 33 6 37 4 41 -17 2 -13 5 42 6 122 l1 146 -52 7 c-49 7 -153 44
-145 53 2 2 30 -3 63 -12 69 -18 152 -19 226 -4 133 27 289 136 339 236 13 26
29 51 34 55 6 4 7 8 3 8 -11 0 86 90 97 90 6 0 28 -26 50 -57z m704 42 c69
-35 40 -155 -38 -155 -34 0 -81 47 -81 81 0 34 45 89 71 89 11 0 33 -7 48 -15z
m-1842 -80 c16 -30 15 -30 -4 -12 -11 9 -23 17 -26 17 -4 0 -18 10 -32 22 -23
20 -24 23 -8 40 16 18 17 17 35 -9 10 -16 26 -41 35 -58z m-692 50 c71 -70
-15 -196 -93 -138 -42 31 -56 68 -42 104 26 61 92 78 135 34z"/>
<path d="M4021 6273 c-83 -6 -147 -16 -151 -23 -4 -6 -17 -12 -28 -13 -12 -1
-22 -5 -22 -9 0 -4 -6 -5 -13 -2 -14 5 -139 -55 -167 -81 -9 -8 -20 -15 -25
-15 -19 0 -125 -88 -202 -167 -112 -115 -198 -255 -245 -398 -41 -125 -53
-183 -69 -345 -17 -170 -6 -272 53 -500 87 -337 324 -633 628 -787 112 -56
203 -82 313 -90 l87 -6 -1 1039 c-1 571 -4 1122 -8 1224 l-6 185 -144 -12z
m-178 -871 c137 -68 206 -206 195 -388 -12 -202 -155 -338 -371 -352 -69 -4
-87 -1 -147 22 -91 36 -157 95 -201 182 -33 66 -34 72 -34 183 0 108 2 121 30
181 36 79 55 101 118 142 74 48 156 68 258 65 74 -3 96 -8 152 -35z"/>
<path d="M3548 5341 c-136 -54 -192 -136 -191 -282 1 -129 63 -233 175 -288
148 -74 329 -15 402 132 58 114 20 299 -78 385 -42 37 -148 72 -215 72 -25 -1
-67 -9 -93 -19z m201 -165 c43 -32 61 -68 61 -123 0 -117 -98 -184 -204 -139
-52 21 -76 60 -76 120 0 67 15 94 74 134 59 39 100 41 145 8z"/>
<path d="M4601 5238 c-90 -46 -137 -145 -113 -235 7 -27 24 -65 38 -85 83
-128 319 -75 352 79 37 171 -131 317 -277 241z"/>
<path d="M2870 6160 c8 -5 7 -11 -4 -23 -9 -8 -16 -18 -16 -21 0 -12 44 1 48
14 3 8 0 10 -8 5 -8 -5 -11 -3 -8 6 3 8 12 13 21 13 9 -1 15 2 12 6 -3 4 -16
8 -31 8 -15 0 -21 -4 -14 -8z"/>
<path d="M2835 5115 c-4 -36 -5 -69 -1 -72 3 -4 6 13 6 36 0 33 3 41 16 39 10
-2 19 4 21 12 4 13 3 13 -6 0 -9 -12 -11 -10 -11 12 0 55 -19 36 -25 -27z"/>
<path d="M2861 5054 c0 -11 3 -14 6 -6 3 7 2 16 -1 19 -3 4 -6 -2 -5 -13z"/>
<path d="M2671 4864 c0 -11 3 -14 6 -6 3 7 2 16 -1 19 -3 4 -6 -2 -5 -13z"/>
<path d="M3700 3655 c0 -3 4 -13 9 -23 5 -9 17 -39 27 -67 17 -50 88 -135 112
-135 6 0 12 -4 12 -10 0 -5 3 -9 8 -8 4 1 27 -11 51 -27 24 -17 49 -33 55 -37
34 -23 107 -47 149 -50 l47 -3 0 110 0 110 -69 2 c-113 2 -215 35 -348 113
-29 17 -53 28 -53 25z"/>
<path d="M5945 6390 c3 -5 8 -10 11 -10 2 0 4 5 4 10 0 6 -5 10 -11 10 -5 0
-7 -4 -4 -10z"/>
<path d="M2850 2961 c-36 -11 -90 -29 -120 -42 -80 -35 -226 -123 -208 -127 8
-2 20 -13 27 -25 14 -26 55 -47 91 -47 14 0 32 -6 39 -12 17 -18 377 -18 407
-1 11 7 57 13 102 14 45 1 82 5 82 8 0 7 9 8 144 16 63 3 108 11 122 20 14 9
25 11 29 5 3 -6 1 -10 -5 -10 -6 0 -8 -4 -5 -10 3 -5 0 -7 -8 -4 -8 3 -17 -2
-20 -10 -5 -13 -1 -13 33 -1 21 7 42 10 46 7 4 -4 4 -2 0 5 -4 7 -13 10 -21 6
-10 -3 -13 -1 -10 8 5 12 -37 44 -140 107 -53 32 -169 82 -223 96 -85 23 -277
20 -362 -3z"/>
</g>
</svg>
